<svg xmlns="http://www.w3.org/2000/svg" viewBox="0 0 1200 720" role="img" aria-label="Klasyczna krzywa zmiany (morale / percepcja w trakcie zmiany)">
  <defs>
    <style>
      :root { color-scheme: light; }
      .bg { fill: #ffffff; }
      .axis { stroke: #222; stroke-width: 2; }
      .grid { stroke: #e7e7e7; stroke-width: 1; }
      .label { fill: #111; font: 18px system-ui, -apple-system, "Segoe UI", Roboto, Arial, sans-serif; }
      .small { fill: #333; font: 14px system-ui, -apple-system, "Segoe UI", Roboto, Arial, sans-serif; }
      .title { fill: #111; font: 28px system-ui, -apple-system, "Segoe UI", Roboto, Arial, sans-serif; font-weight: 650; }
      .note { fill: #1a1a1a; font: 15px system-ui, -apple-system, "Segoe UI", Roboto, Arial, sans-serif; }
      .curve { fill: none; stroke: #0b5c7a; stroke-width: 6; }
      .marker { fill: #111; }
    </style>
  </defs>

  <rect class="bg" x="0" y="0" width="1200" height="720"/>

  <text class="title" x="70" y="60">Klasyczna krzywa zmiany</text>
  <text class="small" x="70" y="92">Wzorzec: początkowy entuzjazm → zderzenie ze statusem quo → pełna problematyka → szukanie rozwiązań → uczenie</text>

  <!-- Grid -->
  <g>
    <line class="grid" x1="180" y1="140" x2="180" y2="620"/>
    <line class="grid" x1="330" y1="140" x2="330" y2="620"/>
    <line class="grid" x1="480" y1="140" x2="480" y2="620"/>
    <line class="grid" x1="630" y1="140" x2="630" y2="620"/>
    <line class="grid" x1="780" y1="140" x2="780" y2="620"/>
    <line class="grid" x1="930" y1="140" x2="930" y2="620"/>
    <line class="grid" x1="1080" y1="140" x2="1080" y2="620"/>

    <line class="grid" x1="90" y1="200" x2="1140" y2="200"/>
    <line class="grid" x1="90" y1="280" x2="1140" y2="280"/>
    <line class="grid" x1="90" y1="360" x2="1140" y2="360"/>
    <line class="grid" x1="90" y1="440" x2="1140" y2="440"/>
    <line class="grid" x1="90" y1="520" x2="1140" y2="520"/>
  </g>

  <!-- Axes -->
  <line class="axis" x1="90" y1="620" x2="1140" y2="620"/>
  <line class="axis" x1="90" y1="620" x2="90" y2="140"/>

  <!-- Axis labels -->
  <text class="label" x="620" y="680" text-anchor="middle">Czas (pozostawanie z problemem / adaptacja)</text>
  <text class="label" x="30" y="380" text-anchor="middle" transform="rotate(-90 30 380)">Morale / percepcja</text>

  <!-- Phase labels -->
  <text class="small" x="210" y="642" text-anchor="middle">Początkowy entuzjazm</text>

  <text class="small" x="470" y="642" text-anchor="middle">Zderzenie ze statusem quo</text>

  <text class="small" x="730" y="642" text-anchor="middle">Pełna problematyka</text>

  <text class="small" x="990" y="642" text-anchor="middle">Szukanie rozwiązań</text>
  <text class="small" x="990" y="660" text-anchor="middle">(uczenie)</text>

  <!-- Curve -->
  <path class="curve"
    d="M 140 235
       C 260 230, 320 260, 390 305
       C 470 365, 520 525, 610 555
       C 720 575, 820 430, 900 320
       C 980 245, 1060 220, 1120 225" />

  <!-- Markers -->
  <circle class="marker" cx="140" cy="235" r="5"/>
  <circle class="marker" cx="610" cy="555" r="5"/>
  <circle class="marker" cx="1120" cy="225" r="5"/>

  <text class="note" x="90" y="610">Modelowy kształt percepcji zmiany. Głębokość dołka i tempo odbicia zależą od wsparcia, jasności i sensu zmiany.</text>
</svg>
